<svg version="1.1" id="Layer_1" xmlns="http://www.w3.org/2000/svg" xmlns:xlink="http://www.w3.org/1999/xlink" x="0px" y="0px" viewBox="0 0 500 500" style="width: 188px;" xml:space="preserve" data-imageid="city-2-63" imageName="City 2" class="illustrations_image">
<style type="text/css">
	.st0_city-2-63{fill:#FFFFFF;}
	.st1_city-2-63{fill:#D1D3D4;}
	.st2_city-2-63{fill:#68E1FD;}
	.st3_city-2-63{fill:#231F20;}
	.st4_city-2-63{fill:none;}
</style>
<g id="Clouds_city-2-63">
	<path class="st0_city-2-63" d="M92.3,255.6l-17.7,14.9c42.3-19.2,83.7-37.5,127.2-53.8l119.3-45l99.1-37.3c-2.2,0.8-10.1-2.6-12.6-3&#10;&#9;&#9;c-7.7-1-15.2-0.7-22.2,3s-10.9,10.2-19.2,10.3c-10.4,0.2-15.5-8.9-23.9-12.9c-14.6-7-23.9,9.2-36.7,6.4c-5.9-1.3-11-5.8-17.3-7&#10;&#9;&#9;c-21.3-4.1-43,5.4-54.3,23.9c-9-5.5-20.6-5.9-30.7-2.6s-18.7,10-25.8,17.9c-5.5,6.3-10.4,13-14.7,20.1c-2.6,4.1-5.3,13.1-8.6,14.9&#10;&#9;&#9;c-4.5,2.4-11.6-0.3-17.2,3.7c-1.2,0.9-10.7,13.7-8.7,13.8c-11.5-0.4-22,6.7-25.8,17.6c-0.8,2.6-1.3,5.4-2.7,7.7&#10;&#9;&#9;c-1.4,2.1-3.1,3.9-5.1,5.4L92.3,255.6z"/>
	<path class="st1_city-2-63" d="M74.6,271.1c-0.2,0-0.5-0.1-0.6-0.3c-0.2-0.3-0.1-0.7,0.1-0.9L94.3,253c1.9-1.4,3.6-3.2,4.9-5.2&#10;&#9;&#9;c0.9-1.6,1.5-3.4,1.9-5.2c0.2-0.8,0.4-1.6,0.7-2.4c3.7-10.7,13.7-17.9,25-18.1h0.5c0.7-3.4,8.6-13.2,9.2-13.6&#10;&#9;&#9;c3.3-2.4,7.1-2.5,10.5-2.6c2.5-0.1,4.9-0.2,6.8-1.2s3.8-5.3,5.5-9c0.8-1.9,1.7-3.8,2.8-5.6c4.3-7.2,9.3-13.9,14.8-20.2&#10;&#9;&#9;c8.1-8.9,16.9-15,26.1-18.1c10.6-3.5,22.1-2.6,30.6,2.3c11.7-18.3,33.4-27.7,54.7-23.5c3.3,0.8,6.4,2,9.4,3.7&#10;&#9;&#9;c2.5,1.4,5.2,2.5,8,3.3c5.5,1.2,10.3-1.2,15.4-3.8c6.5-3.2,13.1-6.6,21.5-2.5c3,1.6,5.8,3.5,8.4,5.8c4.6,3.7,8.8,7.2,15.2,7.1&#10;&#9;&#9;c5.2-0.1,8.7-2.9,12.4-5.8c2-1.7,4.2-3.2,6.5-4.5c6.2-3.3,13.4-4.3,22.6-3.1c1.5,0.3,3,0.7,4.4,1.3c2.7,0.9,6.7,2.2,7.9,1.7l0,0&#10;&#9;&#9;c0.4-0.1,0.8,0,0.9,0.4s0,0.8-0.4,0.9L202,217.3C157.7,234,114.8,253,74.9,271.1C74.8,271.1,74.7,271.1,74.6,271.1z M126.9,223.5&#10;&#9;&#9;c-10.7,0.2-20.2,7-23.7,17.1c-0.2,0.8-0.5,1.6-0.7,2.3c-0.4,1.9-1.1,3.8-2,5.5c-1.4,2.1-3.2,4-5.2,5.6l-2.5,2.1l0,0L79,267.7&#10;&#9;&#9;c38.5-17.5,79.9-35.7,122.5-51.7l215.3-81.1c-1.5-0.3-3.2-0.9-5.3-1.6c-1.4-0.5-2.7-0.9-4.2-1.2c-9-1.2-15.7-0.3-21.7,2.9&#10;&#9;&#9;c-2.2,1.3-4.3,2.7-6.3,4.4c-3.9,3.1-7.6,6-13.2,6.1h-0.3c-6.7,0-11.3-3.8-15.8-7.4c-2.5-2.2-5.2-4-8.1-5.6&#10;&#9;&#9;c-7.8-3.8-13.9-0.7-20.3,2.5c-5.1,2.6-10.3,5.2-16.3,3.9c-2.9-0.8-5.7-1.9-8.3-3.4c-2.8-1.6-5.8-2.8-9-3.6&#10;&#9;&#9;c-21-4.1-42.3,5.2-53.6,23.4c-0.2,0.3-0.7,0.4-1,0.2c0,0,0,0,0,0c-8.3-5-19.6-6-30.1-2.5c-9,3-17.6,8.9-25.5,17.7&#10;&#9;&#9;c-5.5,6.2-10.3,12.9-14.6,20c-1,1.8-1.9,3.6-2.7,5.5c-1.9,4.1-3.8,8.3-6.1,9.6c-2.1,1.2-4.7,1.3-7.4,1.4c-3.3,0.1-6.8,0.2-9.7,2.4&#10;&#9;&#9;c-1.1,0.8-8.3,10.7-8.7,12.7c0.2,0.1,0.3,0.4,0.2,0.6c0,0.4-0.3,0.7-0.7,0.7c0,0,0,0-0.1,0l0,0&#10;&#9;&#9;C127.8,223.5,127.3,223.5,126.9,223.5L126.9,223.5z M92.3,255.6L92.3,255.6z"/>
	<path class="st0_city-2-63" d="M343.9,251.5L343.9,251.5c19.8-6.7,39.8-12.7,59.7-19.1l56.9-18.2c0,0-25.5-8-37.2-5.1&#10;&#9;&#9;c-1.3-8.4-10.8-14.4-19-12.3s-13.7,11.4-12.1,19.7c-9.9-4.4-23,3.5-23.7,14.2c-4.7-3-11.1,0-14.5,4.3&#10;&#9;&#9;C349.9,240.2,347.9,246.5,343.9,251.5z"/>
	<path class="st1_city-2-63" d="M343.8,252.2c-0.4,0-0.7-0.3-0.7-0.7c0-0.2,0.1-0.4,0.2-0.5l0,0l0,0l0,0c1.9-2.6,3.6-5.3,5-8.2&#10;&#9;&#9;c1.4-2.9,3.1-5.6,5-8.1c3.5-4.4,9.7-7.3,14.5-5c2.1-10.1,11.9-16.6,22-14.6c0.5,0.1,1,0.2,1.4,0.4c-1-8.4,4.7-17.2,12.8-19.3&#10;&#9;&#9;c4.5-1,9.2-0.1,13,2.5c3.4,2.2,5.9,5.7,6.8,9.6c12-2.5,35.8,4.9,36.8,5.3c0.4,0.1,0.6,0.5,0.4,0.9c-0.1,0.2-0.2,0.4-0.4,0.4&#10;&#9;&#9;l-56.9,18.2c-6.4,2.1-12.8,4.1-19.2,6.1c-13.3,4.2-27.1,8.5-40.5,13C344,252.2,343.9,252.2,343.8,252.2z M364.1,230.3&#10;&#9;&#9;c-3.5,0-7.3,2.3-9.7,5.3c-1.8,2.5-3.5,5.2-4.9,7.9c-1.2,2.3-2.4,4.5-3.9,6.6c12.8-4.3,25.8-8.4,38.4-12.3c6.4-2,12.8-4,19.2-6.1&#10;&#9;&#9;l54.7-17.5c-6.4-1.8-25.2-6.8-34.6-4.4c-0.4,0.1-0.8-0.1-0.8-0.5c0,0,0,0,0-0.1c-0.7-3.9-3-7.3-6.3-9.4c-3.4-2.4-7.7-3.2-11.8-2.3&#10;&#9;&#9;c-7.8,2-13.2,10.8-11.6,18.9c0.1,0.4-0.2,0.7-0.5,0.8c-0.2,0-0.3,0-0.5-0.1c-4.4-2-9.9-1.4-14.6,1.4s-7.8,7.4-8.1,12.2&#10;&#9;&#9;c0,0.4-0.4,0.7-0.7,0.7c-0.1,0-0.2,0-0.3-0.1C366.9,230.7,365.5,230.3,364.1,230.3L364.1,230.3z"/>
	<path class="st0_city-2-63" d="M41.7,181.1l-2.1,2.5c2.6-3,9.8-4.8,13.5-6.6c7.6-3.7,169.2-80.5,169.2-80.5s-22.8,6-34.6,6&#10;&#9;&#9;c-4.5,0-9-0.3-13.4,0.6s-8.8,3.1-11,6.9c-4.4-7.4-15.2-8.8-22.9-5s-12.8,11.3-16.6,19c-5.6-1.9-11.3-4.5-17.4-3&#10;&#9;&#9;c-4.6,1.1-8.8,3.4-12.4,6.5c-6.6,5.7-10.8,13.8-12.9,22.2c-0.2,1.1-0.6,2.1-1.2,3c-0.9,1.1-2.5,1.5-3.9,1.9&#10;&#9;&#9;C61.9,158.7,51.3,169.9,41.7,181.1z"/>
	<path class="st1_city-2-63" d="M39.6,184.3c-0.2,0-0.3-0.1-0.5-0.2c-0.3-0.2-0.3-0.7-0.1-1c0,0,0,0,0,0l2.1-2.5l0,0&#10;&#9;&#9;c9.7-11.2,20.3-22.6,34.7-26.7l0.2-0.1c1.2-0.2,2.4-0.8,3.3-1.6c0.5-0.8,0.9-1.7,1-2.6c1.7-6.7,5.3-16,13.2-22.7&#10;&#9;&#9;c3.6-3.2,8-5.4,12.7-6.6c5.5-1.3,10.6,0.5,15.6,2.2l1.6,0.6c4.9-9.6,10.2-15.6,16.7-18.8c7.4-3.6,18.2-2.6,23.2,4.4&#10;&#9;&#9;c2.3-3.1,6.2-5.4,10.9-6.3c3.6-0.6,7.2-0.8,10.8-0.6c0.9,0,1.8,0,2.7,0c11.5,0,34.1-5.9,34.3-6c0.4-0.1,0.7,0.1,0.8,0.4&#10;&#9;&#9;c0.1,0.3,0,0.7-0.4,0.9c-1.6,0.8-161.7,76.8-169.2,80.5c-1.2,0.6-2.7,1.1-4.3,1.8c-3.4,1.3-7.3,2.7-8.9,4.6l0,0&#10;&#9;&#9;C40,184.2,39.8,184.3,39.6,184.3z M110.1,121.3c-1.2,0-2.4,0.1-3.6,0.4c-4.5,1.1-8.6,3.3-12.1,6.3c-7.6,6.5-11.1,15.5-12.7,21.9&#10;&#9;&#9;c-0.2,1.2-0.7,2.3-1.4,3.3c-1.1,1.1-2.5,1.8-4,2.1l-0.2,0.1c-13.4,3.9-23.5,14.3-32.7,24.9c1.6-0.8,3.4-1.4,5.1-2.1&#10;&#9;&#9;s3.1-1.1,4.2-1.7c6.7-3.2,133.2-63.4,163-77.6c-7.7,1.8-20.1,4.4-28,4.4c-0.9,0-1.8,0-2.8,0c-3.5-0.2-7,0-10.5,0.6&#10;&#9;&#9;c-4.8,0.9-8.6,3.3-10.6,6.6c-0.1,0.2-0.4,0.3-0.6,0.3c-0.2,0-0.5-0.1-0.6-0.3c-4.3-7.2-14.8-8.3-22-4.8&#10;&#9;&#9;c-6.3,3.1-11.5,9.1-16.3,18.7c-0.2,0.3-0.5,0.5-0.8,0.3c-0.7-0.2-1.5-0.5-2.2-0.8C117.7,122.6,113.9,121.3,110.1,121.3L110.1,121.3&#10;&#9;&#9;z"/>
</g>
<g id="Building_5_city-2-63">
	<polygon class="st2_city-2-63 targetColor" points="375.4,170.1 377.5,171.6 380.4,222.8 375.4,219.3 &#9;" style="fill: rgb(37, 183, 151);"/>
	<path class="st3_city-2-63" d="M380.4,223.4c-0.1,0-0.3,0-0.4-0.1l-5-3.4c-0.2-0.1-0.3-0.3-0.3-0.6v-49.3c0-0.3,0.2-0.5,0.4-0.6&#10;&#9;&#9;c0.2-0.1,0.5-0.1,0.7,0.1l2,1.6c0.2,0.1,0.3,0.3,0.3,0.5l2.9,51.1c0,0.3-0.1,0.5-0.4,0.6C380.6,223.4,380.5,223.4,380.4,223.4z&#10;&#9;&#9; M376.1,219l3.5,2.4l-2.8-49.4l-0.6-0.5V219z"/>
	<polygon class="st3_city-2-63" points="370,221.8 374.2,170.8 375.4,170.1 375.4,219.3 &#9;"/>
	<path class="st3_city-2-63" d="M370,222.5c-0.1,0-0.3,0-0.4-0.1c-0.2-0.1-0.3-0.4-0.3-0.6l4.2-51c0-0.2,0.1-0.4,0.3-0.5l1.2-0.8&#10;&#9;&#9;c0.2-0.1,0.5-0.1,0.7,0c0.2,0.1,0.4,0.4,0.4,0.6v49.3c0,0.3-0.2,0.5-0.4,0.6l-5.5,2.5C370.2,222.5,370.1,222.5,370,222.5z&#10;&#9;&#9; M374.8,172.7l-4,48l4-1.8V172.7z"/>
	<polygon class="st2_city-2-63 targetColor" points="375.4,221.8 393.1,233.5 393.1,258 375.4,251.1 &#9;" style="fill: rgb(37, 183, 151);"/>
	<path class="st3_city-2-63" d="M393.1,258.7c-0.1,0-0.2,0-0.2,0l-17.7-6.8c-0.3-0.1-0.4-0.4-0.4-0.6v-29.3c0-0.4,0.3-0.7,0.7-0.7&#10;&#9;&#9;c0.1,0,0.3,0,0.4,0.1l17.7,11.7c0.2,0.1,0.3,0.3,0.3,0.6V258c0,0.2-0.1,0.4-0.3,0.6C393.4,258.6,393.2,258.7,393.1,258.7z&#10;&#9;&#9; M376.1,250.7l16.3,6.3v-23l-16.3-10.8V250.7z"/>
	<polygon class="st3_city-2-63" points="357.5,258 357.5,232.6 375.4,221.8 375.4,251.1 &#9;"/>
	<path class="st3_city-2-63" d="M357.5,258.7c-0.1,0-0.3,0-0.4-0.1c-0.2-0.1-0.3-0.4-0.3-0.6v-25.4c0-0.2,0.1-0.5,0.3-0.6l17.9-10.8&#10;&#9;&#9;c0.2-0.1,0.5-0.1,0.7,0c0.2,0.1,0.4,0.4,0.4,0.6v29.3c0,0.3-0.2,0.5-0.5,0.6l-17.9,6.8C357.7,258.7,357.6,258.7,357.5,258.7z&#10;&#9;&#9; M358.2,233v23.9l16.5-6.3v-27.6L358.2,233z"/>
	<polygon class="st2_city-2-63 targetColor" points="401.6,402.4 401.6,264.7 374.8,252.8 374.8,402.4 &#9;" style="fill: rgb(37, 183, 151);"/>
	<path class="st3_city-2-63" d="M401.6,403.1h-26.8c-0.4,0-0.7-0.3-0.7-0.7v0V252.8c0-0.2,0.1-0.5,0.3-0.6c0.2-0.1,0.5-0.1,0.7-0.1l26.8,11.8&#10;&#9;&#9;c0.3,0.1,0.4,0.4,0.4,0.6v137.8C402.3,402.8,402,403.1,401.6,403.1z M375.5,401.7h25.4V265.1l-25.4-11.2V401.7z"/>
	<polygon class="st3_city-2-63" points="374.8,402.4 374.8,252.8 348.2,260.9 348.2,402.4 &#9;"/>
	<path class="st3_city-2-63" d="M374.8,403.1h-26.6c-0.4,0-0.7-0.3-0.7-0.7v0V260.9c0-0.3,0.2-0.6,0.5-0.7l26.6-8.1c0.2-0.1,0.4,0,0.6,0.1&#10;&#9;&#9;c0.2,0.1,0.3,0.3,0.3,0.6v149.6C375.5,402.8,375.2,403.1,374.8,403.1z M348.9,401.7h25.2V253.8l-25.2,7.7V401.7z"/>
	<polygon class="st3_city-2-63" points="346.5,259.3 375.4,246.3 375.4,252.8 346.5,264.7 &#9;"/>
	<path class="st3_city-2-63" d="M346.5,265.4c-0.1,0-0.3,0-0.4-0.1c-0.2-0.1-0.3-0.3-0.3-0.6v-5.3c0-0.3,0.2-0.5,0.4-0.6l29-13&#10;&#9;&#9;c0.2-0.1,0.5-0.1,0.7,0.1c0.2,0.1,0.3,0.4,0.3,0.6v6.5c0,0.3-0.2,0.5-0.4,0.6l-29,11.8C346.6,265.3,346.5,265.4,346.5,265.4z&#10;&#9;&#9; M347.2,259.8v3.8l27.6-11.2v-5L347.2,259.8z"/>
	<polygon class="st0_city-2-63" points="375.4,246.3 401.6,259.7 401.6,264.7 375.4,252.8 &#9;"/>
	<path class="st3_city-2-63" d="M401.6,265.4c-0.1,0-0.2,0-0.3-0.1l-26.2-11.8c-0.2-0.1-0.4-0.4-0.4-0.6v-6.5c0-0.4,0.3-0.7,0.7-0.7&#10;&#9;&#9;c0.1,0,0.2,0,0.3,0.1l26.3,13.4c0.2,0.1,0.4,0.4,0.4,0.6v4.9c0,0.2-0.1,0.5-0.3,0.6C401.9,265.3,401.8,265.4,401.6,265.4z&#10;&#9;&#9; M376.1,252.4l24.8,11.2v-3.4l-24.8-12.7V252.4z"/>
	<polygon class="st3_city-2-63" points="375.4,221.8 355.3,233.9 355.3,229.7 375.4,217.4 &#9;"/>
	<path class="st3_city-2-63" d="M355.3,234.6c-0.1,0-0.2,0-0.4-0.1c-0.2-0.1-0.4-0.4-0.4-0.6v-4.2c0-0.2,0.1-0.5,0.3-0.6l20.2-12.4&#10;&#9;&#9;c0.2-0.1,0.5-0.1,0.7,0c0.2,0.1,0.4,0.4,0.4,0.6v4.5c0,0.2-0.1,0.5-0.3,0.6l-20.2,12.1C355.5,234.6,355.4,234.6,355.3,234.6z&#10;&#9;&#9; M356,230.1v2.6l18.8-11.2v-2.8L356,230.1z M375.4,221.8L375.4,221.8z"/>
	<polygon class="st0_city-2-63" points="375.4,217.4 394.3,230.1 394.3,233.9 375.4,221.8 &#9;"/>
	<path class="st3_city-2-63" d="M394.3,234.6c-0.1,0-0.3,0-0.4-0.1L375,222.4c-0.2-0.1-0.3-0.4-0.3-0.6v-4.5c0-0.4,0.3-0.7,0.7-0.7&#10;&#9;&#9;c0.1,0,0.3,0,0.4,0.1l18.9,12.7c0.2,0.1,0.3,0.3,0.3,0.6v3.8c0,0.3-0.1,0.5-0.4,0.6C394.5,234.6,394.4,234.6,394.3,234.6z&#10;&#9;&#9; M376.1,221.4l17.5,11.2v-2.1l-17.5-11.8V221.4z"/>
	<path class="st0_city-2-63" d="M384.9,400.6c-0.4,0-0.7-0.3-0.7-0.7v0V261.6c0-0.4,0.3-0.7,0.7-0.7c0.4,0,0.7,0.3,0.7,0.7V400&#10;&#9;&#9;C385.5,400.4,385.2,400.7,384.9,400.6z"/>
	<path class="st0_city-2-63" d="M394.3,400.6c-0.4,0-0.7-0.3-0.7-0.7v0V264.7c0-0.4,0.3-0.7,0.7-0.7s0.7,0.3,0.7,0.7c0,0,0,0,0,0V400&#10;&#9;&#9;C395,400.4,394.6,400.7,394.3,400.6z"/>
	<path class="st0_city-2-63" d="M389.2,238.1c-0.1,0-0.3,0-0.4-0.1l-9.8-6.4c-0.3-0.2-0.4-0.6-0.2-1c0,0,0,0,0,0c0.2-0.3,0.7-0.4,1-0.2&#10;&#9;&#9;c0,0,0,0,0,0l9.9,6.4c0.3,0.2,0.4,0.6,0.2,0.9c0,0,0,0,0,0.1C389.7,238,389.5,238.1,389.2,238.1z"/>
</g>
<g id="Building_4_city-2-63">
	<polygon class="st0_city-2-63" points="376.3,402.4 376.3,302.1 330.3,290.3 330.3,402.4 &#9;"/>
	<path class="st3_city-2-63" d="M376.3,403.1h-46c-0.4,0-0.7-0.3-0.7-0.7v0V290.3c0-0.2,0.1-0.4,0.3-0.5c0.2-0.1,0.4-0.2,0.6-0.1l46,11.8&#10;&#9;&#9;c0.3,0.1,0.5,0.4,0.5,0.7v100.3C377,402.8,376.7,403.1,376.3,403.1z M331,401.7h44.6v-99.1L331,291.2V401.7z"/>
	<polygon class="st3_city-2-63" points="330.3,402.4 330.3,287.6 281.7,303.4 281.7,402.4 &#9;"/>
	<path class="st3_city-2-63" d="M330.3,403.1h-48.6c-0.4,0-0.7-0.3-0.7-0.7v0v-99c0-0.3,0.2-0.6,0.5-0.7l48.6-15.8c0.2-0.1,0.4,0,0.6,0.1&#10;&#9;&#9;c0.2,0.1,0.3,0.3,0.3,0.6v114.8C331,402.8,330.7,403.1,330.3,403.1z M282.4,401.7h47.2V288.6l-47.2,15.3V401.7z"/>
	<polygon class="st0_city-2-63" points="366.6,284.6 366.6,298.2 330.3,287.6 330.3,272.5 &#9;"/>
	<path class="st3_city-2-63" d="M366.6,298.9c-0.1,0-0.1,0-0.2,0l-36.3-10.6c-0.3-0.1-0.5-0.4-0.5-0.7v-15.1c0-0.2,0.1-0.4,0.3-0.6&#10;&#9;&#9;c0.2-0.1,0.4-0.2,0.6-0.1l36.3,12c0.3,0.1,0.5,0.4,0.5,0.7v13.6C367.3,298.5,366.9,298.9,366.6,298.9L366.6,298.9L366.6,298.9z&#10;&#9;&#9; M331,287.1l34.9,10.1v-12.2L331,273.5V287.1z"/>
	<polygon class="st3_city-2-63" points="278.3,307.6 330.3,292.6 330.3,283.8 278.3,300.1 &#9;"/>
	<path class="st3_city-2-63" d="M278.3,308.3c-0.4,0-0.7-0.3-0.7-0.7v0v-7.5c0-0.3,0.2-0.6,0.5-0.7l52-16.4c0.2-0.1,0.4,0,0.6,0.1&#10;&#9;&#9;c0.2,0.1,0.3,0.3,0.3,0.6v8.9c0,0.3-0.2,0.6-0.5,0.7l-52,15C278.4,308.3,278.3,308.3,278.3,308.3z M279,300.6v6l50.6-14.6v-7.4&#10;&#9;&#9;L279,300.6z"/>
	<polygon class="st3_city-2-63" points="289.3,299.1 289.3,289.1 330.3,276.1 330.3,283.8 &#9;"/>
	<path class="st3_city-2-63" d="M289.3,299.9c-0.1,0-0.3,0-0.4-0.1c-0.2-0.1-0.3-0.3-0.3-0.6v-10c0-0.3,0.2-0.6,0.5-0.7l41-13&#10;&#9;&#9;c0.2-0.1,0.4,0,0.6,0.1c0.2,0.1,0.3,0.3,0.3,0.6v7.7c0,0.3-0.2,0.6-0.5,0.6l-41,15.4C289.5,299.9,289.4,299.9,289.3,299.9z&#10;&#9;&#9; M290,289.6v8.5l39.6-14.9v-6.2L290,289.6z"/>
	<polygon class="st3_city-2-63" points="330.3,276.1 286.7,290.3 286.7,283.2 330.3,268.4 &#9;"/>
	<path class="st3_city-2-63" d="M286.7,291c-0.1,0-0.3,0-0.4-0.1c-0.2-0.1-0.3-0.3-0.3-0.6v-7.1c0-0.3,0.2-0.6,0.5-0.7l43.6-14.8&#10;&#9;&#9;c0.2-0.1,0.4,0,0.6,0.1c0.2,0.1,0.3,0.3,0.3,0.6v7.7c0,0.3-0.2,0.6-0.5,0.7L287,291C286.9,291,286.8,291,286.7,291z M287.4,283.7&#10;&#9;&#9;v5.6l42.2-13.7v-6.2L287.4,283.7z M330.3,276.1L330.3,276.1z"/>
	<polygon class="st2_city-2-63 targetColor" points="330.3,283.8 378.2,299.1 378.2,307.6 330.3,292.6 &#9;" style="fill: rgb(37, 183, 151);"/>
	<path class="st3_city-2-63" d="M378.2,308.3H378l-47.9-15c-0.3-0.1-0.5-0.4-0.5-0.7v-8.9c0-0.2,0.1-0.4,0.3-0.6c0.2-0.1,0.4-0.2,0.6-0.1&#10;&#9;&#9;l47.9,15.4c0.3,0.1,0.5,0.4,0.5,0.7v8.5c0,0.2-0.1,0.4-0.3,0.6C378.5,308.3,378.3,308.3,378.2,308.3z M331,292.1l46.5,14.5v-7&#10;&#9;&#9;L331,284.7V292.1z"/>
	<polygon class="st2_city-2-63 targetColor" points="330.3,276.1 369.5,287.6 369.5,281.9 330.3,268.4 &#9;" style="fill: rgb(37, 183, 151);"/>
	<path class="st3_city-2-63" d="M369.5,288.3c-0.1,0-0.1,0-0.2,0l-39.2-11.6c-0.3-0.1-0.5-0.4-0.5-0.7v-7.7c0-0.2,0.1-0.4,0.3-0.6&#10;&#9;&#9;c0.2-0.1,0.4-0.2,0.6-0.1l39.2,13.5c0.3,0.1,0.5,0.4,0.5,0.7v5.8c0,0.2-0.1,0.4-0.3,0.6C369.8,288.3,369.7,288.3,369.5,288.3z&#10;&#9;&#9; M331,275.6l37.8,11.1v-4.3l-37.8-13V275.6z"/>
	<path class="st3_city-2-63" d="M343.1,403.1c-0.4,0-0.7-0.3-0.7-0.7v0V296.6c0-0.4,0.3-0.7,0.7-0.7c0.4,0,0.7,0.3,0.7,0.7v105.8&#10;&#9;&#9;C343.8,402.8,343.5,403.1,343.1,403.1z"/>
	<path class="st3_city-2-63" d="M355.3,403.1c-0.4,0-0.7-0.3-0.7-0.7v0V300.8c0-0.4,0.3-0.7,0.7-0.7c0.4,0,0.7,0.3,0.7,0.7v101.7&#10;&#9;&#9;C356,402.8,355.6,403.1,355.3,403.1z"/>
	<path class="st3_city-2-63" d="M365.7,404.2c-0.4,0-0.7-0.3-0.7-0.7v0v-99.6c0-0.4,0.3-0.7,0.7-0.7s0.7,0.3,0.7,0.7c0,0,0,0,0,0v99.6&#10;&#9;&#9;C366.4,403.8,366.1,404.2,365.7,404.2z"/>
</g>
<g id="Building_3_city-2-63">
	<polygon class="st2_city-2-63 targetColor" points="300.1,402.4 300.1,197.3 287.3,189.1 288,137.3 256.5,111.6 251.8,175.8 263.6,402.4 &#9;" style="fill: rgb(37, 183, 151);"/>
	<path class="st3_city-2-63" d="M300.1,403.1h-36.4c-0.4,0-0.7-0.3-0.7-0.7l-11.9-226.7l4.7-64.3c0-0.3,0.2-0.5,0.4-0.6&#10;&#9;&#9;c0.2-0.1,0.5-0.1,0.7,0.1l31.5,25.8c0.2,0.1,0.3,0.3,0.2,0.6l-0.6,51.4l12.4,7.9c0.2,0.1,0.3,0.4,0.3,0.6v205.2&#10;&#9;&#9;C300.8,402.8,300.5,403.1,300.1,403.1z M264.3,401.7h35.1V197.6l-12.4-7.9c-0.2-0.1-0.3-0.4-0.3-0.6l0.6-51.4L257,113l-4.6,62.8&#10;&#9;&#9;L264.3,401.7z"/>
	<polygon class="st3_city-2-63" points="263.8,402.4 263.8,174.1 191.8,194.6 191.8,402.4 &#9;"/>
	<path class="st3_city-2-63" d="M263.8,403.1h-72c-0.4,0-0.7-0.3-0.7-0.7l0,0V194.6c0-0.3,0.2-0.6,0.5-0.7l72-20.5c0.2-0.1,0.4,0,0.6,0.1&#10;&#9;&#9;c0.2,0.1,0.3,0.3,0.3,0.6v228.3C264.5,402.8,264.2,403.1,263.8,403.1z M192.5,401.7h70.6V175.1l-70.6,20.1L192.5,401.7z"/>
	<polygon class="st3_city-2-63" points="208.1,197.3 208.1,130.5 256.5,111.6 256.5,184.6 &#9;"/>
	<path class="st3_city-2-63" d="M208.1,198c-0.2,0-0.3-0.1-0.4-0.1c-0.2-0.1-0.3-0.3-0.3-0.6v-66.8c0-0.3,0.2-0.6,0.4-0.7l48.4-18.9&#10;&#9;&#9;c0.2-0.1,0.5-0.1,0.6,0.1c0.2,0.1,0.3,0.3,0.3,0.6v73c0,0.3-0.2,0.6-0.5,0.7l-48.4,12.6C208.2,197.9,208.2,198,208.1,198z&#10;&#9;&#9; M208.8,131v65.4l46.9-12.2v-71.5L208.8,131z"/>
	<line class="st4_city-2-63" x1="300.1" y1="197.3" x2="263.8" y2="174.1"/>
	<path class="st3_city-2-63" d="M300.1,198c-0.1,0-0.3,0-0.4-0.1l-36.3-23.1c-0.3-0.2-0.4-0.7-0.2-1c0.2-0.3,0.6-0.4,0.9-0.2l36.3,23.1&#10;&#9;&#9;c0.3,0.2,0.4,0.6,0.2,0.9c0,0,0,0,0,0.1C300.5,197.9,300.3,198,300.1,198z"/>
	<path class="st0_city-2-63" d="M273.2,400.3c-0.4,0-0.7-0.3-0.7-0.7v0V188c0-0.4,0.3-0.7,0.7-0.7c0.4,0,0.7,0.3,0.7,0.7c0,0,0,0,0,0v211.6&#10;&#9;&#9;C273.9,400,273.6,400.3,273.2,400.3z"/>
	<path class="st0_city-2-63" d="M282.9,400.3c-0.4,0-0.7-0.3-0.7-0.7v0V192.7c0-0.4,0.3-0.7,0.7-0.7c0.4,0,0.7,0.3,0.7,0.7c0,0,0,0,0,0v206.9&#10;&#9;&#9;C283.6,400,283.3,400.3,282.9,400.3z"/>
	<path class="st0_city-2-63" d="M292.6,400.3c-0.4,0-0.7-0.3-0.7-0.7V198.5c0-0.4,0.3-0.7,0.7-0.7c0.4,0,0.7,0.3,0.7,0.7v201.1&#10;&#9;&#9;C293.3,400,293,400.3,292.6,400.3z"/>
	<path class="st0_city-2-63" d="M267.2,172.9c-0.4,0-0.7-0.3-0.7-0.7c0,0,0,0,0,0v-47.3c0-0.4,0.3-0.7,0.7-0.7c0.4,0,0.7,0.3,0.7,0.7&#10;&#9;&#9;c0,0,0,0,0,0v47.3C267.9,172.6,267.5,172.9,267.2,172.9z"/>
	<path class="st0_city-2-63" d="M274.8,178c-0.4,0-0.7-0.3-0.7-0.7c0,0,0,0,0,0v-46.1c0-0.4,0.3-0.7,0.7-0.7c0.4,0,0.7,0.3,0.7,0.7v46.1&#10;&#9;&#9;C275.5,177.7,275.2,178,274.8,178z"/>
	<path class="st0_city-2-63" d="M281.9,182.1c-0.4,0-0.7-0.3-0.7-0.7c0,0,0,0,0,0v-44.9c0-0.4,0.3-0.7,0.7-0.7c0.4,0,0.7,0.3,0.7,0.7v44.9&#10;&#9;&#9;C282.6,181.8,282.3,182.1,281.9,182.1z"/>
</g>
<g id="Building_2_city-2-63">
	<polygon class="st0_city-2-63" points="249.4,402.4 249.4,266.5 203.9,243.4 189.1,251.7 189.1,402.4 &#9;"/>
	<path class="st3_city-2-63" d="M249.4,403.1h-60.3c-0.4,0-0.7-0.3-0.7-0.7l0,0V251.7c0-0.3,0.1-0.5,0.4-0.6l14.8-8.3c0.2-0.1,0.5-0.1,0.7,0&#10;&#9;&#9;l45.5,23.1c0.2,0.1,0.4,0.4,0.4,0.6v135.9C250.1,402.8,249.8,403.1,249.4,403.1z M189.8,401.7h58.9V266.9l-44.8-22.8l-14.1,7.9&#10;&#9;&#9;V401.7z"/>
	<polygon class="st3_city-2-63" points="197,402.4 197,248.9 152.9,255.6 152.9,402.4 &#9;"/>
	<path class="st3_city-2-63" d="M197,403.1h-44.1c-0.4,0-0.7-0.3-0.7-0.7l0,0V255.6c0-0.3,0.3-0.6,0.6-0.7l44.2-6.7c0.2,0,0.4,0,0.6,0.2&#10;&#9;&#9;c0.1,0.1,0.2,0.3,0.2,0.5v153.5C197.7,402.8,197.4,403.1,197,403.1C197,403.1,197,403.1,197,403.1z M153.6,401.7h42.8v-152&#10;&#9;&#9;l-42.8,6.5V401.7z"/>
	<polygon class="st3_city-2-63" points="148.9,262.3 201.1,248.5 201.1,238.6 148.9,254 &#9;"/>
	<path class="st3_city-2-63" d="M148.9,263c-0.2,0-0.3-0.1-0.4-0.1c-0.2-0.1-0.3-0.3-0.3-0.5V254c0-0.3,0.2-0.6,0.5-0.7l52.2-15.3&#10;&#9;&#9;c0.2-0.1,0.4,0,0.6,0.1c0.2,0.1,0.3,0.3,0.3,0.6v9.9c0,0.3-0.2,0.6-0.5,0.7L149.1,263H148.9z M149.6,254.5v6.8l50.8-13.4v-8.4&#10;&#9;&#9;L149.6,254.5z"/>
	<polygon class="st2_city-2-63 targetColor" points="201.1,248.5 253,267.8 253,258.2 201.1,238.6 &#9;" style="fill: rgb(37, 183, 151);"/>
	<path class="st3_city-2-63" d="M253,268.5c-0.1,0-0.2,0-0.2,0l-51.9-19.3c-0.3-0.1-0.4-0.4-0.4-0.7v-9.9c0-0.2,0.1-0.4,0.3-0.6&#10;&#9;&#9;c0.2-0.1,0.4-0.2,0.6-0.1l51.9,19.5c0.3,0.1,0.5,0.4,0.5,0.7v9.6c0,0.2-0.1,0.4-0.3,0.6C253.3,268.5,253.1,268.5,253,268.5z&#10;&#9;&#9; M201.8,248l50.5,18.8v-8.2l-50.5-19V248z"/>
	<path class="st1_city-2-63" d="M207.2,399.9c-0.4,0-0.7-0.3-0.7-0.7c-0.5-46.5-0.5-94,0-141.3c0-0.4,0.3-0.7,0.7-0.7c0.4,0,0.7,0.3,0.7,0.7&#10;&#9;&#9;c0,0,0,0,0,0c-0.5,47.2-0.5,94.8,0,141.2C207.9,399.6,207.6,399.9,207.2,399.9C207.2,399.9,207.2,399.9,207.2,399.9L207.2,399.9z"/>
	<path class="st1_city-2-63" d="M218.5,399.7c-0.4,0-0.7-0.3-0.7-0.7l0,0c-0.3-46.6-0.3-91.8,0-138c0-0.4,0.3-0.7,0.7-0.7c0,0,0,0,0,0l0,0&#10;&#9;&#9;c0.4,0,0.7,0.3,0.7,0.7c-0.3,46.2-0.3,91.3,0,138C219.2,399.3,218.9,399.7,218.5,399.7z"/>
	<path class="st1_city-2-63" d="M229.8,400L229.8,400c-0.4,0-0.7-0.3-0.7-0.7l0,0c0-45.1,0-89.2,0-135.2c0-0.4,0.3-0.7,0.7-0.7&#10;&#9;&#9;s0.7,0.3,0.7,0.7c0,0,0,0,0,0c0,46.1,0,90.1,0,135.2C230.5,399.7,230.2,400,229.8,400C229.8,400,229.8,400,229.8,400z"/>
	<path class="st1_city-2-63" d="M241.1,399.7L241.1,399.7c-0.4,0-0.7-0.3-0.7-0.7c0,0,0,0,0,0c0.3-43.1,0.3-87.5,0-132c0-0.4,0.3-0.7,0.7-0.7&#10;&#9;&#9;c0,0,0,0,0,0l0,0c0.4,0,0.7,0.3,0.7,0.7c0.3,44.4,0.3,88.8,0,132C241.8,399.4,241.5,399.7,241.1,399.7z"/>
</g>
<g id="Building_1_city-2-63">
	<polygon class="st3_city-2-63" points="122.3,402.4 122.3,323.1 93.9,330.2 93.9,402.4 &#9;"/>
	<path class="st3_city-2-63" d="M122.3,403.1H93.9c-0.4,0-0.7-0.3-0.7-0.7l0,0v-72.2c0-0.3,0.2-0.6,0.5-0.7l28.4-7.1c0.2,0,0.4,0,0.6,0.1&#10;&#9;&#9;c0.2,0.1,0.3,0.3,0.3,0.5v79.3C123,402.8,122.7,403.1,122.3,403.1z M94.6,401.7h27V324l-27,6.7V401.7z"/>
	<polygon class="st0_city-2-63" points="182,402.4 182,330.5 122.3,323.1 122.3,402.4 &#9;"/>
	<path class="st3_city-2-63" d="M182,403.1h-59.7c-0.4,0-0.7-0.3-0.7-0.7l0,0v-79.3c0-0.2,0.1-0.4,0.2-0.5c0.1-0.1,0.4-0.2,0.6-0.2l59.7,7.4&#10;&#9;&#9;c0.4,0,0.6,0.3,0.6,0.7v71.9C182.7,402.8,182.4,403.1,182,403.1z M123,401.7h58.2v-70.6l-58.2-7.2V401.7z"/>
	<polygon class="st3_city-2-63" points="91.1,331.1 91.1,325.6 122.3,316.4 122.3,323.1 &#9;"/>
	<path class="st3_city-2-63" d="M91.1,331.9c-0.4,0-0.7-0.3-0.7-0.7l0,0v-5.5c0-0.3,0.2-0.6,0.5-0.7l31.3-9.2c0.4-0.1,0.8,0.1,0.9,0.5&#10;&#9;&#9;c0,0.1,0,0.1,0,0.2v6.7c0,0.3-0.2,0.6-0.5,0.7l-31.3,8L91.1,331.9z M91.8,326.1v4.1l29.9-7.6v-5.2L91.8,326.1z"/>
	<polygon class="st2_city-2-63 targetColor" points="122.3,316.4 184.8,326.1 184.8,330.8 122.3,323.1 &#9;" style="fill: rgb(37, 183, 151);"/>
	<path class="st3_city-2-63" d="M184.8,331.5L184.8,331.5l-62.6-7.6c-0.4,0-0.6-0.3-0.6-0.7v-6.7c0-0.2,0.1-0.4,0.2-0.5&#10;&#9;&#9;c0.2-0.1,0.4-0.2,0.6-0.2l62.5,9.6c0.3,0.1,0.6,0.4,0.6,0.7v4.7c0,0.2-0.1,0.4-0.2,0.5C185.1,331.4,185,331.5,184.8,331.5z&#10;&#9;&#9; M123,322.5l61.1,7.5v-3.3l-61.1-9.4L123,322.5z"/>
	<path class="st1_city-2-63" d="M174.8,340L174.8,340l-41.8-4.9c-0.4,0-0.7-0.4-0.6-0.8c0,0,0,0,0,0c0-0.4,0.4-0.7,0.8-0.6c0,0,0,0,0,0&#10;&#9;&#9;l41.7,4.9c0.4,0.1,0.6,0.4,0.6,0.8C175.4,339.8,175.1,340,174.8,340L174.8,340z"/>
	<path class="st1_city-2-63" d="M174.8,350.9L174.8,350.9l-41.8-4.1c-0.4,0-0.7-0.3-0.7-0.7c0-0.4,0.3-0.7,0.7-0.7c0,0,0.1,0,0.1,0l41.7,4.1&#10;&#9;&#9;c0.4,0,0.7,0.4,0.6,0.8C175.4,350.6,175.1,350.9,174.8,350.9z"/>
	<path class="st1_city-2-63" d="M174.8,361.5L174.8,361.5l-41.5-2.8c-0.4,0-0.7-0.4-0.7-0.7s0.4-0.7,0.7-0.7l41.5,2.8c0.4,0,0.7,0.3,0.7,0.7&#10;&#9;&#9;c0,0,0,0,0,0C175.5,361.3,175.2,361.6,174.8,361.5C174.8,361.5,174.8,361.5,174.8,361.5z"/>
	<path class="st1_city-2-63" d="M174.9,371.8L174.9,371.8l-41.4-2.4c-0.4,0-0.7-0.3-0.7-0.7c0,0,0,0,0,0c0-0.4,0.3-0.7,0.7-0.7c0,0,0,0,0.1,0&#10;&#9;&#9;l41.4,2.4c0.4,0,0.7,0.3,0.7,0.7C175.6,371.5,175.3,371.8,174.9,371.8L174.9,371.8z"/>
	<path class="st1_city-2-63" d="M175,382.1L175,382.1l-41.7-1.2c-0.4,0-0.7-0.3-0.7-0.7c0,0,0,0,0,0c0-0.4,0.3-0.7,0.7-0.7l41.6,1.2&#10;&#9;&#9;c0.4,0,0.7,0.3,0.7,0.7c0,0,0,0,0,0C175.7,381.7,175.4,382,175,382.1z"/>
	<path class="st1_city-2-63" d="M175,392.3h-41.6c-0.4,0-0.7-0.3-0.7-0.7c0-0.4,0.3-0.7,0.7-0.7H175c0.4,0,0.7,0.3,0.7,0.7&#10;&#9;&#9;C175.7,392,175.4,392.3,175,392.3z"/>
	<path class="st0_city-2-63" d="M133.4,403.1c-0.4,0-0.7-0.3-0.7-0.7c-0.3-25.4-0.4-51.6-0.3-78c0-0.4,0.3-0.7,0.7-0.7c0,0,0,0,0,0l0,0&#10;&#9;&#9;c0.4,0,0.7,0.3,0.7,0.7l0,0c-0.1,26.4,0,52.6,0.3,77.9C134.2,402.8,133.9,403.1,133.4,403.1C133.5,403.1,133.5,403.1,133.4,403.1&#10;&#9;&#9;L133.4,403.1z"/>
	<path class="st0_city-2-63" d="M174.8,403.1L174.8,403.1c-0.4,0-0.7-0.3-0.7-0.7c0,0,0,0,0,0c0.1-23.1,0.2-47,0.1-72.8c0-0.4,0.3-0.7,0.7-0.7&#10;&#9;&#9;c0,0,0,0,0,0l0,0c0.4,0,0.7,0.3,0.7,0.7l0,0c0.1,25.8,0,49.6-0.1,72.8C175.5,402.8,175.2,403.1,174.8,403.1z"/>
	<path class="st1_city-2-63" d="M133.4,403.1c-0.4,0-0.7-0.3-0.7-0.7c-0.3-25.4-0.4-51.6-0.3-78c0-0.4,0.3-0.7,0.7-0.7c0,0,0,0,0,0l0,0&#10;&#9;&#9;c0.4,0,0.7,0.3,0.7,0.7l0,0c-0.1,26.4,0,52.6,0.3,77.9C134.2,402.8,133.9,403.1,133.4,403.1C133.5,403.1,133.5,403.1,133.4,403.1&#10;&#9;&#9;L133.4,403.1z"/>
	<path class="st1_city-2-63" d="M174.8,403.1L174.8,403.1c-0.4,0-0.7-0.3-0.7-0.7c0,0,0,0,0,0c0.1-23.1,0.2-47,0.1-72.8c0-0.4,0.3-0.7,0.7-0.7&#10;&#9;&#9;c0,0,0,0,0,0l0,0c0.4,0,0.7,0.3,0.7,0.7l0,0c0.1,25.8,0,49.6-0.1,72.8C175.5,402.8,175.2,403.1,174.8,403.1z"/>
	<path class="st3_city-2-63" d="M133.4,403.8c-0.8,0-1.4-0.6-1.4-1.4c-0.3-25.4-0.4-51.6-0.3-78c0-0.8,0.6-1.4,1.4-1.4c0.8,0,1.4,0.6,1.4,1.4&#10;&#9;&#9;c-0.1,26.4,0,52.6,0.3,77.9C134.9,403.1,134.2,403.8,133.4,403.8C133.5,403.8,133.5,403.8,133.4,403.8L133.4,403.8z M133.1,324.5&#10;&#9;&#9;c-0.1,26.3,0,52.6,0.3,77.9l0,0C133.1,377.1,133,350.9,133.1,324.5z"/>
	<path class="st3_city-2-63" d="M174.8,403.8L174.8,403.8c-0.8,0-1.4-0.6-1.4-1.4c0,0,0,0,0,0c0.1-23.2,0.2-47,0.1-72.8c0-0.8,0.6-1.4,1.4-1.4&#10;&#9;&#9;c0.8,0,1.4,0.6,1.4,1.4c0,25.8,0,49.6-0.1,72.8C176.2,403.2,175.6,403.8,174.8,403.8z M174.8,402.4L174.8,402.4L174.8,402.4z&#10;&#9;&#9; M174.9,329.6c0,15,0,29.2,0,43.1C175,358.9,175,344.6,174.9,329.6L174.9,329.6z"/>
</g>
<path id="ground_city-2-63" class="st3_city-2-63" d="M445.3,404.2H51.4c-0.4,0-0.7-0.3-0.7-0.7c0-0.4,0.3-0.7,0.7-0.7h393.9c0.4,0,0.7,0.3,0.7,0.7&#10;&#9;C446,403.8,445.7,404.2,445.3,404.2z"/>
</svg>